
<svg xmlns="http://www.w3.org/2000/svg" width="52" height="52" fill="none"><rect width="52" height="52" fill="#fff" fill-opacity=".2" rx="26"/><g clip-path="url(#a)"><path fill="#fff" d="M33.001 15h-14a5.006 5.006 0 0 0-5 5v12a5.006 5.006 0 0 0 5 5h14a5.006 5.006 0 0 0 5-5V20a5.006 5.006 0 0 0-5-5Zm-14 2h14a3 3 0 0 1 2.78 1.887l-7.658 7.659a3.007 3.007 0 0 1-4.244 0l-7.658-7.659A3 3 0 0 1 19.001 17Zm14 18h-14a3 3 0 0 1-3-3V21.5l6.464 6.46a5.007 5.007 0 0 0 7.072 0l6.464-6.46V32a3 3 0 0 1-3 3Z"/></g><defs><clipPath id="a"><path fill="#fff" d="M14.001 14h24v24h-24z"/></clipPath></defs></svg>